<?xml version="1.0" encoding="UTF-8" standalone="no"?>
<!DOCTYPE svg PUBLIC "-//W3C//DTD SVG 1.1//EN" "http://www.w3.org/Graphics/SVG/1.1/DTD/svg11.dtd">
<svg width="100%" height="100%" viewBox="0 0 24 24" version="1.1" xmlns="http://www.w3.org/2000/svg" xmlns:xlink="http://www.w3.org/1999/xlink" xml:space="preserve" xmlns:serif="http://www.serif.com/" style="fill-rule:evenodd;clip-rule:evenodd;stroke-linejoin:round;stroke-miterlimit:1.41421;">
    <g id="Forma-1" serif:id="Forma 1" transform="matrix(1,0,0,1,-23,-283.5)">
        <path d="M42.125,284L42.125,289.591L44,291.508L44,307L27.875,307L27.875,305.083L26,305.083L26,284L42.125,284ZM38,292.05L38,286.683L28.625,286.683L28.625,306.233L43.25,306.233L43.25,292.05L38,292.05ZM38.53,285.916L41.375,288.824L41.375,284.766L26.75,284.766L26.75,304.316L27.875,304.316L27.875,285.916L38.53,285.916ZM40.625,302.783C40.832,302.783 41,302.954 41,303.166C41,303.378 40.832,303.549 40.625,303.55L31.25,303.55C31.043,303.55 30.875,303.378 30.875,303.166C30.875,302.954 31.042,302.783 31.25,302.783L40.625,302.783ZM40.625,299.716C40.832,299.717 41,299.888 41,300.1C41,300.311 40.832,300.483 40.625,300.483L31.25,300.483C31.043,300.483 30.875,300.311 30.875,300.1C30.875,299.888 31.042,299.717 31.25,299.716L40.625,299.716ZM40.625,296.65C40.832,296.65 41,296.821 41,297.033C41,297.245 40.832,297.416 40.625,297.416L31.25,297.416C31.043,297.416 30.875,297.245 30.875,297.033C30.875,296.821 31.042,296.65 31.25,296.65L40.625,296.65ZM40.625,293.583C40.832,293.583 41,293.755 41,293.966C41,294.178 40.832,294.349 40.625,294.35L31.25,294.35C31.043,294.35 30.875,294.178 30.875,293.966C30.875,293.755 31.042,293.583 31.25,293.583L40.625,293.583ZM35,290.516C35.207,290.517 35.375,290.688 35.375,290.9C35.375,291.111 35.207,291.282 35,291.283L31.25,291.283C31.043,291.283 30.875,291.112 30.875,290.9C30.875,290.688 31.042,290.517 31.25,290.516L35,290.516ZM42.72,291.283L42.125,290.675L38.75,287.225L38.75,291.283L42.72,291.283Z" style="fill:white;"/>
    </g>
</svg>
