<?xml version="1.0" encoding="UTF-8" standalone="no"?>
<!DOCTYPE svg PUBLIC "-//W3C//DTD SVG 1.1//EN" "http://www.w3.org/Graphics/SVG/1.1/DTD/svg11.dtd">
<svg width="100%" height="100%" viewBox="0 0 28 28" version="1.1" xmlns="http://www.w3.org/2000/svg" xmlns:xlink="http://www.w3.org/1999/xlink" xml:space="preserve" xmlns:serif="http://www.serif.com/" style="fill-rule:evenodd;clip-rule:evenodd;stroke-linejoin:round;stroke-miterlimit:1.41421;">
    <g transform="matrix(1,0,0,1,-171.463,-2183.81)">
        <g id="Ellipse-2-copy" serif:id="Ellipse 2 copy" transform="matrix(1,0,0,1,-0.536871,0.805306)">
            <circle cx="186" cy="2197" r="13" style="fill:rgb(70,157,201);"/>
        </g>
        <g id="Forma-1" serif:id="Forma 1" transform="matrix(1,0,0,1,0.463629,1.30531)">
            <path d="M187.82,2202.38L187.63,2203.24C187.061,2203.48 186.606,2203.67 186.268,2203.8C185.929,2203.93 185.535,2204 185.086,2204C184.397,2204 183.861,2203.81 183.478,2203.44C183.096,2203.07 182.904,2202.6 182.904,2202.03C182.904,2201.8 182.918,2201.58 182.947,2201.35C182.976,2201.11 183.023,2200.85 183.086,2200.56L183.797,2197.78C183.861,2197.51 183.915,2197.26 183.958,2197.02C184.001,2196.78 184.022,2196.57 184.022,2196.37C184.022,2196.01 183.956,2195.77 183.823,2195.63C183.691,2195.49 183.438,2195.42 183.062,2195.42C182.878,2195.42 182.689,2195.45 182.496,2195.51C182.303,2195.58 182.137,2195.64 181.999,2195.69L182.189,2194.84C182.655,2194.63 183.1,2194.45 183.527,2194.3C183.953,2194.15 184.356,2194.07 184.737,2194.07C185.421,2194.07 185.949,2194.26 186.32,2194.62C186.691,2194.99 186.876,2195.46 186.876,2196.05C186.876,2196.17 186.864,2196.38 186.838,2196.68C186.813,2196.99 186.765,2197.27 186.695,2197.52L185.987,2200.29C185.929,2200.51 185.877,2200.77 185.831,2201.05C185.784,2201.34 185.762,2201.56 185.762,2201.7C185.762,2202.07 185.836,2202.32 185.985,2202.45C186.135,2202.59 186.394,2202.66 186.76,2202.66C186.933,2202.66 187.129,2202.62 187.346,2202.55C187.564,2202.49 187.722,2202.43 187.82,2202.38ZM188,2190.75C188,2191.23 187.835,2191.64 187.504,2191.98C187.174,2192.32 186.776,2192.49 186.311,2192.49C185.844,2192.49 185.445,2192.32 185.111,2191.98C184.778,2191.64 184.611,2191.23 184.611,2190.75C184.611,2190.27 184.778,2189.86 185.111,2189.51C185.445,2189.17 185.844,2189 186.311,2189C186.776,2189 187.174,2189.17 187.504,2189.51C187.836,2189.86 188,2190.27 188,2190.75Z" style="fill:white;fill-rule:nonzero;"/>
        </g>
    </g>
</svg>
