<?xml version="1.0" encoding="UTF-8" standalone="no"?>
<!DOCTYPE svg PUBLIC "-//W3C//DTD SVG 1.1//EN" "http://www.w3.org/Graphics/SVG/1.1/DTD/svg11.dtd">
<svg width="100%" height="100%" viewBox="0 0 30 30" version="1.1" xmlns="http://www.w3.org/2000/svg" xmlns:xlink="http://www.w3.org/1999/xlink" xml:space="preserve" xmlns:serif="http://www.serif.com/" style="fill-rule:evenodd;clip-rule:evenodd;stroke-linejoin:round;stroke-miterlimit:1.41421;">
    <g id="Shape-1" serif:id="Shape 1" transform="matrix(1,0,0,1,-1065.01,-207.994)">
        <path d="M1090.67,219.785C1092.08,217.904 1092.08,215.296 1090.67,213.414L1092.78,211.306C1093.07,211.008 1093.07,210.527 1092.77,210.23C1092.48,209.933 1092,209.934 1091.7,210.231L1089.6,212.336C1087.71,210.923 1085.1,210.921 1083.21,212.332L1081.67,210.788C1080.78,209.898 1079.33,209.898 1078.44,210.788L1067.69,221.544C1066.8,222.433 1066.8,223.881 1067.69,224.771L1069.57,226.653C1068.89,228.573 1069.35,230.74 1070.81,232.192C1072.26,233.645 1074.43,234.111 1076.35,233.429L1078.23,235.311C1079.12,236.203 1080.56,236.203 1081.45,235.311L1092.21,224.556C1093.1,223.666 1093.1,222.218 1092.21,221.329L1090.67,219.785ZM1091.14,223.48L1089.38,225.231C1089.38,225.05 1089.3,224.871 1089.16,224.733L1088.09,223.658C1087.79,223.36 1087.31,223.36 1087.01,223.658C1086.72,223.954 1086.72,224.436 1087.01,224.733L1088.09,225.809C1088.23,225.947 1088.41,226.02 1088.59,226.029L1080.38,234.236C1080.08,234.533 1079.6,234.533 1079.3,234.236L1077.06,231.995C1076.84,231.767 1076.49,231.707 1076.2,231.846C1074.74,232.537 1073.01,232.244 1071.88,231.117C1070.75,229.989 1070.46,228.255 1071.15,226.801C1071.29,226.51 1071.23,226.164 1071,225.936L1068.76,223.695C1068.47,223.399 1068.47,222.916 1068.76,222.62L1077.17,214.207C1077.05,214.486 1077.1,214.824 1077.33,215.053L1078.41,216.128C1078.7,216.425 1079.19,216.425 1079.48,216.128C1079.78,215.831 1079.78,215.35 1079.48,215.053L1078.41,213.977C1078.18,213.748 1077.84,213.697 1077.56,213.82L1079.52,211.864C1079.82,211.567 1080.3,211.567 1080.6,211.864L1082.64,213.907C1082.93,214.204 1083.42,214.204 1083.71,213.907C1085.03,212.596 1087.04,212.449 1088.51,213.428L1087.4,214.537C1086.55,214.134 1085.51,214.282 1084.81,214.983C1083.91,215.872 1083.91,217.32 1084.81,218.21C1085.69,219.099 1087.14,219.099 1088.03,218.21C1088.73,217.508 1088.88,216.461 1088.48,215.612L1089.58,214.506C1090.55,215.965 1090.4,217.972 1089.09,219.285C1088.8,219.582 1088.8,220.064 1089.09,220.361L1091.14,222.404C1091.43,222.701 1091.43,223.183 1091.14,223.48ZM1080.49,226.814C1079.6,225.925 1078.15,225.925 1077.26,226.814C1076.37,227.704 1076.37,229.152 1077.26,230.041C1078.15,230.931 1079.6,230.931 1080.49,230.041C1081.38,229.152 1081.38,227.704 1080.49,226.814ZM1079.41,228.965C1079.12,229.262 1078.63,229.262 1078.34,228.965C1078.04,228.669 1078.04,228.186 1078.34,227.89C1078.63,227.593 1079.11,227.593 1079.41,227.89C1079.71,228.187 1079.71,228.668 1079.41,228.965ZM1083.93,224.041C1083.89,223.624 1083.51,223.323 1083.09,223.369L1073.41,224.445C1072.99,224.491 1072.69,224.867 1072.74,225.285C1072.79,225.702 1073.16,226.003 1073.58,225.957L1083.26,224.881C1083.68,224.835 1083.98,224.459 1083.93,224.041ZM1079.41,219.285C1078.52,218.396 1077.07,218.395 1076.18,219.285C1075.3,220.175 1075.3,221.622 1076.18,222.512C1077.07,223.401 1078.52,223.402 1079.41,222.512C1080.3,221.622 1080.3,220.175 1079.41,219.285ZM1085.94,221.506L1084.86,220.431C1084.57,220.134 1084.08,220.134 1083.79,220.431C1083.49,220.728 1083.49,221.209 1083.79,221.506L1084.86,222.582C1085.16,222.879 1085.64,222.879 1085.94,222.582C1086.24,222.285 1086.24,221.803 1085.94,221.506ZM1078.34,221.436C1078.04,221.733 1077.56,221.733 1077.26,221.436C1076.96,221.139 1076.96,220.658 1077.26,220.361C1077.56,220.064 1078.04,220.063 1078.34,220.361C1078.63,220.657 1078.63,221.14 1078.34,221.436ZM1082.71,218.279L1081.63,217.204C1081.34,216.907 1080.86,216.907 1080.56,217.204C1080.26,217.501 1080.26,217.982 1080.56,218.279L1081.63,219.355C1081.78,219.504 1081.98,219.578 1082.17,219.578C1082.37,219.578 1082.56,219.504 1082.71,219.355C1083.01,219.058 1083.01,218.576 1082.71,218.279ZM1086.96,217.134C1086.66,217.43 1086.18,217.43 1085.88,217.134C1085.58,216.837 1085.58,216.356 1085.88,216.058C1086.18,215.761 1086.66,215.761 1086.96,216.058C1087.25,216.356 1087.25,216.837 1086.96,217.134Z" style="fill:white;"/>
    </g>
</svg>
