<?xml version="1.0" encoding="UTF-8" standalone="no"?>
<!DOCTYPE svg PUBLIC "-//W3C//DTD SVG 1.1//EN" "http://www.w3.org/Graphics/SVG/1.1/DTD/svg11.dtd">
<svg width="100%" height="100%" viewBox="0 0 24 24" version="1.1" xmlns="http://www.w3.org/2000/svg" xmlns:xlink="http://www.w3.org/1999/xlink" xml:space="preserve" xmlns:serif="http://www.serif.com/" style="fill-rule:evenodd;clip-rule:evenodd;stroke-linejoin:round;stroke-miterlimit:1.41421;">
    <g id="Forma-1" serif:id="Forma 1" transform="matrix(1,0,0,1,-1487,-24.9995)">
        <path d="M1505.86,33.816L1505.16,33.127C1505.07,33.035 1504.96,32.989 1504.84,32.989C1504.71,32.989 1504.61,33.035 1504.51,33.127L1499,38.543L1493.49,33.127C1493.39,33.035 1493.29,32.99 1493.16,32.99C1493.04,32.99 1492.93,33.035 1492.84,33.127L1492.14,33.816C1492.05,33.908 1492,34.014 1492,34.133C1492,34.253 1492.05,34.359 1492.14,34.45L1498.68,40.873C1498.77,40.965 1498.88,41.01 1499,41.01C1499.12,41.01 1499.23,40.965 1499.32,40.873L1505.86,34.45C1505.95,34.359 1506,34.253 1506,34.133C1506,34.014 1505.95,33.908 1505.86,33.816Z" style="fill:rgb(0,87,161);fill-rule:nonzero;"/>
    </g>
</svg>
