<?xml version="1.0" encoding="UTF-8" standalone="no"?>
<!DOCTYPE svg PUBLIC "-//W3C//DTD SVG 1.1//EN" "http://www.w3.org/Graphics/SVG/1.1/DTD/svg11.dtd">
<svg width="100%" height="100%" viewBox="0 0 24 24" version="1.1" xmlns="http://www.w3.org/2000/svg" xmlns:xlink="http://www.w3.org/1999/xlink" xml:space="preserve" xmlns:serif="http://www.serif.com/" style="fill-rule:evenodd;clip-rule:evenodd;stroke-linejoin:round;stroke-miterlimit:1.41421;">
    <g id="Forma-1-copy" serif:id="Forma 1 copy" transform="matrix(1,0,0,1,-1505.5,-107)">
        <path d="M1522.89,116.612L1522.34,116.095C1522.27,116.026 1522.18,115.992 1522.09,115.992C1521.99,115.992 1521.91,116.026 1521.83,116.095L1517.5,120.158L1513.17,116.096C1513.09,116.027 1513.01,115.992 1512.91,115.992C1512.82,115.992 1512.73,116.027 1512.66,116.096L1512.11,116.612C1512.04,116.681 1512,116.761 1512,116.85C1512,116.94 1512.04,117.019 1512.11,117.088L1517.25,121.905C1517.32,121.973 1517.4,122.008 1517.5,122.008C1517.6,122.008 1517.68,121.973 1517.75,121.905L1522.89,117.088C1522.96,117.019 1523,116.94 1523,116.85C1523,116.761 1522.96,116.681 1522.89,116.612Z" style="fill:rgb(101,101,101);fill-rule:nonzero;"/>
    </g>
</svg>
