<?xml version="1.0" encoding="UTF-8" standalone="no"?>
<!DOCTYPE svg PUBLIC "-//W3C//DTD SVG 1.1//EN" "http://www.w3.org/Graphics/SVG/1.1/DTD/svg11.dtd">
<svg width="100%" height="100%" viewBox="0 0 24 24" version="1.1" xmlns="http://www.w3.org/2000/svg" xmlns:xlink="http://www.w3.org/1999/xlink" xml:space="preserve" xmlns:serif="http://www.serif.com/" style="fill-rule:evenodd;clip-rule:evenodd;stroke-linejoin:round;stroke-miterlimit:1.41421;">
    <g id="Forma-1" serif:id="Forma 1" transform="matrix(1,0,0,1,-1475.5,-2045.48)">
        <path d="M1482.14,2052.9C1481.94,2052.7 1481.94,2052.35 1482.14,2052.14C1482.36,2051.93 1482.69,2051.93 1482.91,2052.14L1487.5,2056.73L1492.1,2052.14C1492.3,2051.93 1492.65,2051.93 1492.85,2052.14C1493.07,2052.35 1493.07,2052.7 1492.85,2052.9L1488.26,2057.48L1492.85,2062.07C1493.07,2062.28 1493.07,2062.62 1492.85,2062.83C1492.64,2063.04 1492.3,2063.04 1492.1,2062.83L1487.5,2058.25L1482.91,2062.83C1482.69,2063.04 1482.36,2063.04 1482.14,2062.83C1481.94,2062.62 1481.94,2062.28 1482.14,2062.07L1486.73,2057.48L1482.14,2052.9Z" style="fill:white;fill-rule:nonzero;"/>
    </g>
</svg>
