<?xml version="1.0" encoding="UTF-8" standalone="no"?>
<!DOCTYPE svg PUBLIC "-//W3C//DTD SVG 1.1//EN" "http://www.w3.org/Graphics/SVG/1.1/DTD/svg11.dtd">
<svg width="100%" height="100%" viewBox="0 0 24 24" version="1.1" xmlns="http://www.w3.org/2000/svg" xmlns:xlink="http://www.w3.org/1999/xlink" xml:space="preserve" xmlns:serif="http://www.serif.com/" style="fill-rule:evenodd;clip-rule:evenodd;stroke-linejoin:round;stroke-miterlimit:1.41421;">
    <g id="Forma-1" serif:id="Forma 1" transform="matrix(1,0,0,1,-23,-95.992)">
        <path d="M25.028,116.961C23.744,115.115 23.001,112.91 23.001,110.539C23.001,104.158 28.372,98.987 34.999,98.987C41.628,98.987 47.001,104.158 46.999,110.54C46.999,112.917 46.251,115.126 44.974,116.961L43.342,116.961C43.351,116.95 43.363,116.937 43.369,116.926L41.345,114.974L42.421,113.936L44.242,115.687C45.157,114.173 45.688,112.419 45.688,110.54L45.673,110.277L43.201,110.277L43.201,108.809L45.522,108.807C45.218,107.082 44.475,105.506 43.397,104.188L41.712,105.81L40.632,104.772L42.369,103.097C40.564,101.44 38.16,100.392 35.5,100.275L35.5,102.938L33.973,102.939L33.972,100.299C31.59,100.518 29.443,101.496 27.777,102.972L29.474,104.606L28.396,105.644L26.721,104.033C25.577,105.381 24.792,107.015 24.477,108.806L26.711,108.806L26.711,110.275L24.326,110.277C24.324,110.366 24.313,110.449 24.313,110.539C24.313,112.425 24.85,114.189 25.771,115.71L27.71,114.078L28.715,115.184L26.636,116.932C26.644,116.94 26.649,116.953 26.658,116.961L26.601,116.961L26.558,116.997L26.526,116.961L25.028,116.961ZM35.416,112.445C36.013,112.445 36.499,111.975 36.499,111.399C36.499,110.825 36.013,110.359 35.416,110.359L30.511,106.885L34.333,111.467C34.369,112.012 34.841,112.445 35.416,112.445Z" style="fill:white;"/>
    </g>
</svg>
