<?xml version="1.0" encoding="UTF-8" standalone="no"?>
<!DOCTYPE svg PUBLIC "-//W3C//DTD SVG 1.1//EN" "http://www.w3.org/Graphics/SVG/1.1/DTD/svg11.dtd">
<svg width="100%" height="100%" viewBox="0 0 30 30" version="1.1" xmlns="http://www.w3.org/2000/svg" xmlns:xlink="http://www.w3.org/1999/xlink" xml:space="preserve" xmlns:serif="http://www.serif.com/" style="fill-rule:evenodd;clip-rule:evenodd;stroke-linejoin:round;stroke-miterlimit:1.41421;">
    <g id="Shape-1" serif:id="Shape 1" transform="matrix(1,0,0,1,-806,-204)">
        <path d="M830.733,220.849C830.062,219.281 829.136,217.762 827.964,216.341C826.548,214.611 825.137,213.454 824.418,212.919L827.134,207.805C827.267,207.551 827.224,207.238 827.016,207.038C826.314,206.341 825.568,206 824.738,206C823.976,206 823.279,206.292 822.672,206.551C822.193,206.751 821.74,206.946 821.373,206.946C821.261,206.946 821.165,206.93 821.069,206.892C819.802,206.422 818.828,206.13 817.885,206.13C816.693,206.13 815.676,206.616 814.68,207.654C814.472,207.87 814.44,208.211 814.605,208.465L817.534,212.957C816.81,213.503 815.425,214.649 814.036,216.341C812.87,217.762 811.938,219.281 811.267,220.849C810.426,222.822 810,224.881 810,226.968C810,229.741 812.225,232 814.957,232L827.043,232C829.774,232 832,229.741 832,226.968C832,224.881 831.574,222.822 830.733,220.849ZM827.043,230.703C829.083,230.691 830.722,229.02 830.711,226.968C830.711,223.497 829.466,220.216 827,217.2C825.446,215.292 823.87,214.103 823.385,213.762L818.604,213.762C818.125,214.108 816.544,215.292 814.989,217.2C812.529,220.216 811.278,223.503 811.278,226.968C811.278,229.027 812.928,230.703 814.957,230.703L827.043,230.703ZM820.489,219.065L820.489,218.162C820.489,217.805 820.776,217.513 821.128,217.513C821.479,217.513 821.767,217.805 821.767,218.162L821.767,219.065L822.975,219.065C823.327,219.065 823.614,219.357 823.614,219.713C823.614,220.07 823.327,220.362 822.975,220.362L820.398,220.362C819.866,220.362 819.435,220.8 819.435,221.34C819.435,221.881 819.866,222.319 820.398,222.319L821.863,222.319C823.098,222.319 824.104,223.34 824.104,224.595C824.104,225.838 823.119,226.854 821.894,226.87L821.772,226.87L821.772,227.795C821.772,228.151 821.484,228.443 821.133,228.443C820.782,228.443 820.494,228.151 820.494,227.795L820.494,226.87L819.238,226.87C818.876,226.859 818.599,226.572 818.599,226.222C818.599,225.872 818.876,225.584 819.238,225.573L821.863,225.573C822.404,225.564 822.826,225.129 822.826,224.595C822.826,224.06 822.404,223.625 821.863,223.616L820.398,223.616C819.151,223.604 818.157,222.587 818.157,221.34C818.157,220.094 819.151,219.077 820.398,219.065L820.489,219.065ZM823.204,212.465L825.76,207.643C825.323,207.33 824.977,207.286 824.732,207.286C824.226,207.286 823.705,207.508 823.156,207.74C822.587,207.984 821.99,208.232 821.367,208.232C821.112,208.232 820.861,208.189 820.627,208.103C819.493,207.676 818.641,207.416 817.885,207.416C817.177,207.416 816.586,207.654 815.969,208.195L818.753,212.465L823.204,212.465Z" style="fill:rgb(167,177,185);"/>
    </g>
</svg>
