<?xml version="1.0" encoding="UTF-8" standalone="no"?>
<!DOCTYPE svg PUBLIC "-//W3C//DTD SVG 1.1//EN" "http://www.w3.org/Graphics/SVG/1.1/DTD/svg11.dtd">
<svg width="100%" height="100%" viewBox="0 0 24 24" version="1.1" xmlns="http://www.w3.org/2000/svg" xmlns:xlink="http://www.w3.org/1999/xlink" xml:space="preserve" xmlns:serif="http://www.serif.com/" style="fill-rule:evenodd;clip-rule:evenodd;stroke-linejoin:round;stroke-miterlimit:1.41421;">
    <g id="Forma-1" serif:id="Forma 1" transform="matrix(1,0,0,1,-1443.51,-767.003)">
        <path d="M1454.72,771.736C1455.06,771.742 1455.33,772.016 1455.33,772.351C1455.33,772.689 1455.06,772.965 1454.72,772.965L1449.22,772.965L1449.22,785.77L1459.4,785.77L1459.4,780.648C1459.4,780.31 1459.68,780.033 1460.01,780.033C1460.35,780.033 1460.62,780.31 1460.62,780.648L1460.62,786.385C1460.62,786.723 1460.35,787 1460.01,787L1448.61,787C1448.28,787 1448,786.723 1448,786.385L1448,772.351C1448,772.016 1448.27,771.742 1448.61,771.736L1454.72,771.736ZM1458.94,771.183L1452.83,777.339C1452.71,777.452 1452.65,777.606 1452.64,777.769L1452.6,780.915C1452.6,781.079 1452.66,781.252 1452.79,781.365C1452.9,781.478 1453.06,781.57 1453.21,781.57L1453.22,781.57L1456.25,781.509C1456.41,781.509 1456.56,781.417 1456.67,781.304L1462.84,775.096C1463.08,774.86 1463.08,774.471 1462.84,774.225L1459.82,771.183C1459.57,770.947 1459.18,770.947 1458.94,771.183ZM1455.97,780.259L1453.83,780.289L1453.86,778.036L1456.98,774.901L1459.13,777.094L1455.97,780.259ZM1459.99,776.213L1457.85,774.02L1459.37,772.484L1461.53,774.656L1459.99,776.213Z" style="fill:rgb(143,155,167);"/>
    </g>
</svg>
