<?xml version="1.0" encoding="UTF-8" standalone="no"?>
<!DOCTYPE svg PUBLIC "-//W3C//DTD SVG 1.1//EN" "http://www.w3.org/Graphics/SVG/1.1/DTD/svg11.dtd">
<svg width="100%" height="100%" viewBox="0 0 24 24" version="1.1" xmlns="http://www.w3.org/2000/svg" xmlns:xlink="http://www.w3.org/1999/xlink" xml:space="preserve" xmlns:serif="http://www.serif.com/" style="fill-rule:evenodd;clip-rule:evenodd;stroke-linejoin:round;stroke-miterlimit:1.41421;">
    <g id="Forma-1" serif:id="Forma 1" transform="matrix(1,0,0,1,-23,-409)">
        <path d="M35,411C29.47,411 25,415.47 25,421C25,426.529 29.47,431 35,431C40.529,431 45,426.529 45,421C45,415.47 40.529,411 35,411ZM35,429.823C30.176,429.823 26.176,425.823 26.176,421C26.176,416.176 30.176,412.176 35,412.176C39.823,412.176 43.823,416.176 43.823,421C43.823,425.823 39.823,429.823 35,429.823ZM34.529,425.235C34.412,425.353 34.412,425.588 34.412,425.706C34.412,425.823 34.412,425.941 34.529,426.058C34.647,426.176 34.882,426.294 35,426.294C35.117,426.294 35.353,426.176 35.353,426.058C35.47,426.058 35.588,425.823 35.588,425.706C35.588,425.47 35.47,425.353 35.353,425.235C35.117,425 34.764,425 34.529,425.235ZM35.47,415.706C34.764,415.47 33.941,415.706 33.353,416.176C32.765,416.647 32.412,417.353 32.412,418.176C32.412,418.529 32.647,418.764 33,418.764C33.353,418.764 33.588,418.529 33.588,418.176C33.588,417.823 33.706,417.353 34.059,417.117C34.412,416.882 34.765,416.764 35.235,416.882C35.823,417 36.176,417.47 36.294,417.941C36.412,418.529 36.294,419 35.823,419.353C34.882,420.059 34.412,421.117 34.412,422.176C34.412,422.529 34.647,422.764 35,422.764C35.353,422.764 35.588,422.529 35.47,422.176C35.47,421.47 35.941,420.764 36.529,420.294C37.353,419.588 37.706,418.647 37.47,417.705C37.235,416.647 36.412,415.941 35.47,415.706Z" style="fill:white;"/>
    </g>
</svg>
