<svg width="313" height="53" viewBox="0 0 313 53" fill="none" xmlns="http://www.w3.org/2000/svg">
<path d="M47.7666 26.2361C50.657 26.2361 53.0521 28.6015 52.4849 31.4357C51.798 34.8683 50.4343 38.1483 48.4545 41.077C45.492 45.4595 41.2858 48.855 36.3772 50.8266C31.4686 52.7982 26.0822 53.2557 20.9114 52.1401C15.7406 51.0246 11.022 48.3871 7.36292 44.567C3.70381 40.747 1.27169 35.9193 0.37959 30.7053C-0.512514 25.4913 0.176228 20.1296 2.35717 15.3104C4.53811 10.4911 8.11143 6.43483 12.6172 3.66363C15.6285 1.81162 18.9641 0.59021 22.4231 0.0516177C25.279 -0.39307 27.5391 2.10156 27.4148 4.98919C27.2905 7.87683 24.7921 10.0342 22.017 10.8424C20.6471 11.2413 19.3292 11.8235 18.1005 12.5791C15.3744 14.2558 13.2124 16.7099 11.8929 19.6257C10.5734 22.5415 10.1567 25.7855 10.6964 28.9401C11.2362 32.0947 12.7077 35.0156 14.9215 37.3268C17.1354 39.6381 19.9903 41.2339 23.1188 41.9088C26.2473 42.5837 29.5061 42.307 32.476 41.1141C35.4458 39.9212 37.9907 37.8668 39.7831 35.2153C40.5909 34.0203 41.2292 32.7286 41.6867 31.3771C42.6135 28.6394 44.8763 26.2361 47.7666 26.2361Z" fill="white"/>
<path d="M35 23.7361C35 27.0498 32.3137 29.7361 29 29.7361C25.6863 29.7361 23 27.0498 23 23.7361C23 20.4224 25.6863 17.7361 29 17.7361C32.3137 17.7361 35 20.4224 35 23.7361Z" fill="white"/>
<path d="M76.5 40.3C74.88 40.3 73.36 40 71.94 39.4C70.54 38.78 69.31 37.93 68.25 36.85C67.21 35.75 66.39 34.47 65.79 33.01C65.21 31.55 64.92 29.97 64.92 28.27C64.92 26.59 65.21 25.03 65.79 23.59C66.39 22.13 67.21 20.86 68.25 19.78C69.31 18.68 70.54 17.82 71.94 17.2C73.34 16.58 74.86 16.27 76.5 16.27C78.04 16.27 79.36 16.47 80.46 16.87C81.58 17.27 82.7 17.93 83.82 18.85C83.98 18.97 84.1 19.1 84.18 19.24C84.28 19.36 84.34 19.49 84.36 19.63C84.4 19.75 84.42 19.9 84.42 20.08C84.42 20.46 84.28 20.78 84 21.04C83.74 21.28 83.42 21.42 83.04 21.46C82.66 21.48 82.29 21.35 81.93 21.07C81.19 20.43 80.42 19.94 79.62 19.6C78.84 19.26 77.8 19.09 76.5 19.09C75.32 19.09 74.21 19.33 73.17 19.81C72.13 20.29 71.21 20.95 70.41 21.79C69.63 22.63 69.02 23.61 68.58 24.73C68.14 25.83 67.92 27.01 67.92 28.27C67.92 29.55 68.14 30.75 68.58 31.87C69.02 32.97 69.63 33.94 70.41 34.78C71.21 35.62 72.13 36.28 73.17 36.76C74.21 37.22 75.32 37.45 76.5 37.45C77.52 37.45 78.48 37.28 79.38 36.94C80.3 36.58 81.18 36.09 82.02 35.47C82.38 35.21 82.73 35.1 83.07 35.14C83.43 35.16 83.73 35.3 83.97 35.56C84.21 35.8 84.33 36.14 84.33 36.58C84.33 36.78 84.29 36.98 84.21 37.18C84.13 37.36 84.01 37.53 83.85 37.69C82.77 38.55 81.61 39.2 80.37 39.64C79.15 40.08 77.86 40.3 76.5 40.3ZM95.2591 40.12C93.6391 40.12 92.2091 39.77 90.9691 39.07C89.7291 38.35 88.7491 37.37 88.0291 36.13C87.3291 34.87 86.9791 33.43 86.9791 31.81C86.9791 30.17 87.3291 28.73 88.0291 27.49C88.7491 26.23 89.7291 25.25 90.9691 24.55C92.2091 23.83 93.6391 23.47 95.2591 23.47C96.8591 23.47 98.2791 23.83 99.5191 24.55C100.759 25.25 101.729 26.23 102.429 27.49C103.149 28.73 103.509 30.17 103.509 31.81C103.509 33.43 103.159 34.87 102.459 36.13C101.759 37.37 100.789 38.35 99.5491 39.07C98.3091 39.77 96.8791 40.12 95.2591 40.12ZM95.2591 37.42C96.2991 37.42 97.2191 37.18 98.0191 36.7C98.8191 36.22 99.4391 35.56 99.8791 34.72C100.339 33.88 100.569 32.91 100.569 31.81C100.569 30.71 100.339 29.74 99.8791 28.9C99.4391 28.04 98.8191 27.37 98.0191 26.89C97.2191 26.41 96.2991 26.17 95.2591 26.17C94.2191 26.17 93.2991 26.41 92.4991 26.89C91.6991 27.37 91.0691 28.04 90.6091 28.9C90.1491 29.74 89.9191 30.71 89.9191 31.81C89.9191 32.91 90.1491 33.88 90.6091 34.72C91.0691 35.56 91.6991 36.22 92.4991 36.7C93.2991 37.18 94.2191 37.42 95.2591 37.42ZM129.603 40.03C129.163 40.03 128.793 39.89 128.493 39.61C128.213 39.31 128.073 38.94 128.073 38.5V29.92C128.073 28.66 127.763 27.73 127.143 27.13C126.523 26.51 125.713 26.2 124.713 26.2C123.673 26.2 122.813 26.56 122.133 27.28C121.473 28 121.143 28.92 121.143 30.04H118.653C118.653 28.74 118.933 27.6 119.493 26.62C120.053 25.62 120.833 24.84 121.833 24.28C122.853 23.72 124.013 23.44 125.313 23.44C126.453 23.44 127.463 23.69 128.343 24.19C129.223 24.69 129.903 25.43 130.383 26.41C130.883 27.37 131.133 28.54 131.133 29.92V38.5C131.133 38.94 130.993 39.31 130.713 39.61C130.433 39.89 130.063 40.03 129.603 40.03ZM109.593 40.03C109.153 40.03 108.783 39.89 108.483 39.61C108.203 39.31 108.063 38.94 108.063 38.5V25.15C108.063 24.69 108.203 24.32 108.483 24.04C108.783 23.76 109.153 23.62 109.593 23.62C110.053 23.62 110.423 23.76 110.703 24.04C110.983 24.32 111.123 24.69 111.123 25.15V38.5C111.123 38.94 110.983 39.31 110.703 39.61C110.423 39.89 110.053 40.03 109.593 40.03ZM119.613 40.03C119.173 40.03 118.803 39.89 118.503 39.61C118.223 39.31 118.083 38.94 118.083 38.5V29.92C118.083 28.66 117.773 27.73 117.153 27.13C116.533 26.51 115.723 26.2 114.723 26.2C113.683 26.2 112.823 26.56 112.143 27.28C111.463 28 111.123 28.92 111.123 30.04H109.233C109.233 28.74 109.493 27.6 110.013 26.62C110.533 25.62 111.253 24.84 112.173 24.28C113.093 23.72 114.143 23.44 115.323 23.44C116.463 23.44 117.473 23.69 118.353 24.19C119.233 24.69 119.913 25.43 120.393 26.41C120.893 27.37 121.143 28.54 121.143 29.92V38.5C121.143 38.94 121.003 39.31 120.723 39.61C120.443 39.89 120.073 40.03 119.613 40.03ZM137.748 47.02C137.308 47.02 136.938 46.87 136.638 46.57C136.358 46.29 136.218 45.93 136.218 45.49V31.81C136.238 30.23 136.608 28.81 137.328 27.55C138.048 26.29 139.028 25.3 140.268 24.58C141.508 23.84 142.908 23.47 144.468 23.47C146.048 23.47 147.458 23.84 148.698 24.58C149.938 25.3 150.918 26.29 151.638 27.55C152.378 28.81 152.748 30.23 152.748 31.81C152.748 33.39 152.408 34.81 151.728 36.07C151.068 37.31 150.158 38.3 148.998 39.04C147.838 39.76 146.528 40.12 145.068 40.12C143.888 40.12 142.798 39.88 141.798 39.4C140.818 38.9 139.978 38.23 139.278 37.39V45.49C139.278 45.93 139.138 46.29 138.858 46.57C138.578 46.87 138.208 47.02 137.748 47.02ZM144.468 37.42C145.488 37.42 146.398 37.18 147.198 36.7C147.998 36.2 148.628 35.53 149.088 34.69C149.568 33.83 149.808 32.87 149.808 31.81C149.808 30.73 149.568 29.77 149.088 28.93C148.628 28.07 147.998 27.4 147.198 26.92C146.398 26.42 145.488 26.17 144.468 26.17C143.468 26.17 142.558 26.42 141.738 26.92C140.938 27.4 140.308 28.07 139.848 28.93C139.388 29.77 139.158 30.73 139.158 31.81C139.158 32.87 139.388 33.83 139.848 34.69C140.308 35.53 140.938 36.2 141.738 36.7C142.558 37.18 143.468 37.42 144.468 37.42ZM164.151 40.12C162.691 40.12 161.381 39.76 160.221 39.04C159.061 38.3 158.141 37.31 157.461 36.07C156.801 34.81 156.471 33.39 156.471 31.81C156.471 30.23 156.831 28.81 157.551 27.55C158.291 26.29 159.281 25.3 160.521 24.58C161.781 23.84 163.191 23.47 164.751 23.47C166.311 23.47 167.711 23.84 168.951 24.58C170.191 25.3 171.171 26.29 171.891 27.55C172.631 28.81 173.001 30.23 173.001 31.81H171.831C171.831 33.39 171.491 34.81 170.811 36.07C170.151 37.31 169.241 38.3 168.081 39.04C166.921 39.76 165.611 40.12 164.151 40.12ZM164.751 37.42C165.771 37.42 166.681 37.18 167.481 36.7C168.281 36.2 168.911 35.53 169.371 34.69C169.831 33.83 170.061 32.87 170.061 31.81C170.061 30.73 169.831 29.77 169.371 28.93C168.911 28.07 168.281 27.4 167.481 26.92C166.681 26.42 165.771 26.17 164.751 26.17C163.751 26.17 162.841 26.42 162.021 26.92C161.221 27.4 160.581 28.07 160.101 28.93C159.641 29.77 159.411 30.73 159.411 31.81C159.411 32.87 159.641 33.83 160.101 34.69C160.581 35.53 161.221 36.2 162.021 36.7C162.841 37.18 163.751 37.42 164.751 37.42ZM171.471 40.03C171.031 40.03 170.661 39.89 170.361 39.61C170.081 39.31 169.941 38.94 169.941 38.5V33.91L170.511 30.73L173.001 31.81V38.5C173.001 38.94 172.851 39.31 172.551 39.61C172.271 39.89 171.911 40.03 171.471 40.03ZM191.415 40.03C190.975 40.03 190.605 39.89 190.305 39.61C190.025 39.31 189.885 38.94 189.885 38.5V31.12C189.885 29.98 189.675 29.05 189.255 28.33C188.835 27.61 188.265 27.08 187.545 26.74C186.845 26.38 186.035 26.2 185.115 26.2C184.275 26.2 183.515 26.37 182.835 26.71C182.155 27.05 181.615 27.51 181.215 28.09C180.815 28.65 180.615 29.3 180.615 30.04H178.725C178.725 28.78 179.025 27.66 179.625 26.68C180.245 25.68 181.085 24.89 182.145 24.31C183.205 23.73 184.395 23.44 185.715 23.44C187.095 23.44 188.325 23.74 189.405 24.34C190.505 24.92 191.365 25.78 191.985 26.92C192.625 28.06 192.945 29.46 192.945 31.12V38.5C192.945 38.94 192.795 39.31 192.495 39.61C192.215 39.89 191.855 40.03 191.415 40.03ZM179.085 40.03C178.645 40.03 178.275 39.89 177.975 39.61C177.695 39.31 177.555 38.94 177.555 38.5V25.12C177.555 24.66 177.695 24.29 177.975 24.01C178.275 23.73 178.645 23.59 179.085 23.59C179.545 23.59 179.915 23.73 180.195 24.01C180.475 24.29 180.615 24.66 180.615 25.12V38.5C180.615 38.94 180.475 39.31 180.195 39.61C179.915 39.89 179.545 40.03 179.085 40.03ZM200.945 47.2C200.745 47.2 200.505 47.14 200.225 47.02C199.345 46.62 199.105 45.99 199.505 45.13L208.655 24.46C209.055 23.62 209.685 23.38 210.545 23.74C211.445 24.12 211.695 24.75 211.295 25.63L202.115 46.27C201.875 46.89 201.485 47.2 200.945 47.2ZM204.485 39.34C204.105 39.5 203.745 39.52 203.405 39.4C203.085 39.26 202.825 39 202.625 38.62L195.755 25.57C195.555 25.19 195.525 24.83 195.665 24.49C195.825 24.13 196.095 23.87 196.475 23.71C196.855 23.55 197.215 23.54 197.555 23.68C197.895 23.8 198.155 24.05 198.335 24.43L204.905 37.48C205.105 37.86 205.175 38.23 205.115 38.59C205.075 38.93 204.865 39.18 204.485 39.34ZM224.796 40C224.356 40 223.986 39.85 223.686 39.55C223.406 39.25 223.266 38.88 223.266 38.44V18.13C223.266 17.67 223.406 17.3 223.686 17.02C223.986 16.72 224.356 16.57 224.796 16.57C225.276 16.57 225.676 16.76 225.996 17.14L239.076 34.54V18.13C239.076 17.67 239.226 17.3 239.526 17.02C239.826 16.72 240.196 16.57 240.636 16.57C241.096 16.57 241.466 16.72 241.746 17.02C242.026 17.3 242.166 17.67 242.166 18.13V38.44C242.166 38.88 242.026 39.25 241.746 39.55C241.466 39.85 241.096 40 240.636 40C240.436 40 240.216 39.96 239.976 39.88C239.756 39.78 239.576 39.64 239.436 39.46L226.356 22.06V38.44C226.356 38.88 226.206 39.25 225.906 39.55C225.626 39.85 225.256 40 224.796 40ZM254.708 40.12C253.248 40.12 251.938 39.76 250.778 39.04C249.618 38.3 248.698 37.31 248.018 36.07C247.358 34.81 247.028 33.39 247.028 31.81C247.028 30.23 247.388 28.81 248.108 27.55C248.848 26.29 249.838 25.3 251.078 24.58C252.338 23.84 253.748 23.47 255.308 23.47C256.868 23.47 258.268 23.84 259.508 24.58C260.748 25.3 261.728 26.29 262.448 27.55C263.188 28.81 263.558 30.23 263.558 31.81H262.388C262.388 33.39 262.048 34.81 261.368 36.07C260.708 37.31 259.798 38.3 258.638 39.04C257.478 39.76 256.168 40.12 254.708 40.12ZM255.308 37.42C256.328 37.42 257.238 37.18 258.038 36.7C258.838 36.2 259.468 35.53 259.928 34.69C260.388 33.83 260.618 32.87 260.618 31.81C260.618 30.73 260.388 29.77 259.928 28.93C259.468 28.07 258.838 27.4 258.038 26.92C257.238 26.42 256.328 26.17 255.308 26.17C254.308 26.17 253.398 26.42 252.578 26.92C251.778 27.4 251.138 28.07 250.658 28.93C250.198 29.77 249.968 30.73 249.968 31.81C249.968 32.87 250.198 33.83 250.658 34.69C251.138 35.53 251.778 36.2 252.578 36.7C253.398 37.18 254.308 37.42 255.308 37.42ZM262.028 40.03C261.588 40.03 261.218 39.89 260.918 39.61C260.638 39.31 260.498 38.94 260.498 38.5V33.91L261.068 30.73L263.558 31.81V38.5C263.558 38.94 263.408 39.31 263.108 39.61C262.828 39.89 262.468 40.03 262.028 40.03ZM289.652 40.03C289.212 40.03 288.842 39.89 288.542 39.61C288.262 39.31 288.122 38.94 288.122 38.5V29.92C288.122 28.66 287.812 27.73 287.192 27.13C286.572 26.51 285.762 26.2 284.762 26.2C283.722 26.2 282.862 26.56 282.182 27.28C281.522 28 281.192 28.92 281.192 30.04H278.702C278.702 28.74 278.982 27.6 279.542 26.62C280.102 25.62 280.882 24.84 281.882 24.28C282.902 23.72 284.062 23.44 285.362 23.44C286.502 23.44 287.512 23.69 288.392 24.19C289.272 24.69 289.952 25.43 290.432 26.41C290.932 27.37 291.182 28.54 291.182 29.92V38.5C291.182 38.94 291.042 39.31 290.762 39.61C290.482 39.89 290.112 40.03 289.652 40.03ZM269.642 40.03C269.202 40.03 268.832 39.89 268.532 39.61C268.252 39.31 268.112 38.94 268.112 38.5V25.15C268.112 24.69 268.252 24.32 268.532 24.04C268.832 23.76 269.202 23.62 269.642 23.62C270.102 23.62 270.472 23.76 270.752 24.04C271.032 24.32 271.172 24.69 271.172 25.15V38.5C271.172 38.94 271.032 39.31 270.752 39.61C270.472 39.89 270.102 40.03 269.642 40.03ZM279.662 40.03C279.222 40.03 278.852 39.89 278.552 39.61C278.272 39.31 278.132 38.94 278.132 38.5V29.92C278.132 28.66 277.822 27.73 277.202 27.13C276.582 26.51 275.772 26.2 274.772 26.2C273.732 26.2 272.872 26.56 272.192 27.28C271.512 28 271.172 28.92 271.172 30.04H269.282C269.282 28.74 269.542 27.6 270.062 26.62C270.582 25.62 271.302 24.84 272.222 24.28C273.142 23.72 274.192 23.44 275.372 23.44C276.512 23.44 277.522 23.69 278.402 24.19C279.282 24.69 279.962 25.43 280.442 26.41C280.942 27.37 281.192 28.54 281.192 29.92V38.5C281.192 38.94 281.052 39.31 280.772 39.61C280.492 39.89 280.122 40.03 279.662 40.03ZM303.976 40.12C302.316 40.12 300.836 39.77 299.536 39.07C298.256 38.35 297.246 37.37 296.506 36.13C295.786 34.87 295.426 33.43 295.426 31.81C295.426 30.17 295.766 28.73 296.446 27.49C297.146 26.23 298.106 25.25 299.326 24.55C300.546 23.83 301.946 23.47 303.526 23.47C305.086 23.47 306.426 23.82 307.546 24.52C308.666 25.2 309.516 26.15 310.096 27.37C310.696 28.57 310.996 29.96 310.996 31.54C310.996 31.92 310.866 32.24 310.606 32.5C310.346 32.74 310.016 32.86 309.616 32.86H297.526V30.46H309.526L308.296 31.3C308.276 30.3 308.076 29.41 307.696 28.63C307.316 27.83 306.776 27.2 306.076 26.74C305.376 26.28 304.526 26.05 303.526 26.05C302.386 26.05 301.406 26.3 300.586 26.8C299.786 27.3 299.176 27.99 298.756 28.87C298.336 29.73 298.126 30.71 298.126 31.81C298.126 32.91 298.376 33.89 298.876 34.75C299.376 35.61 300.066 36.29 300.946 36.79C301.826 37.29 302.836 37.54 303.976 37.54C304.596 37.54 305.226 37.43 305.866 37.21C306.526 36.97 307.056 36.7 307.456 36.4C307.756 36.18 308.076 36.07 308.416 36.07C308.776 36.05 309.086 36.15 309.346 36.37C309.686 36.67 309.866 37 309.886 37.36C309.906 37.72 309.746 38.03 309.406 38.29C308.726 38.83 307.876 39.27 306.856 39.61C305.856 39.95 304.896 40.12 303.976 40.12Z" fill="white"/>
</svg>
