<?xml version="1.0" encoding="UTF-8" standalone="no"?>
<!DOCTYPE svg PUBLIC "-//W3C//DTD SVG 1.1//EN" "http://www.w3.org/Graphics/SVG/1.1/DTD/svg11.dtd">
<svg width="100%" height="100%" viewBox="0 0 24 24" version="1.1" xmlns="http://www.w3.org/2000/svg" xmlns:xlink="http://www.w3.org/1999/xlink" xml:space="preserve" xmlns:serif="http://www.serif.com/" style="fill-rule:evenodd;clip-rule:evenodd;stroke-linejoin:round;stroke-miterlimit:1.41421;">
    <g id="Shape-1" serif:id="Shape 1" transform="matrix(1,0,0,1,-1340,-168)">
        <path d="M1354.82,171C1351.41,171 1348.64,173.729 1348.64,177.084C1348.64,177.829 1348.78,178.554 1349.04,179.242L1343.13,185.06C1343.05,185.143 1343,185.256 1343,185.373L1343,188.556C1343,188.801 1343.2,189 1343.45,189L1346.12,189C1346.23,189 1346.35,188.953 1346.43,188.87L1347.33,187.987C1347.42,187.904 1347.46,187.791 1347.46,187.674L1347.46,186.588L1348.56,186.588C1348.81,186.588 1349.02,186.39 1349.02,186.145L1349.02,185.71L1349.46,185.71C1349.7,185.71 1349.91,185.512 1349.91,185.267L1349.91,184.313L1350.88,184.313C1351,184.313 1351.11,184.266 1351.19,184.183L1352.63,182.773C1353.33,183.034 1354.06,183.167 1354.82,183.167C1358.23,183.167 1361,180.438 1361,177.083C1361,173.729 1358.23,171 1354.82,171ZM1350.69,183.426L1352.2,181.937C1352.2,181.936 1352.2,181.935 1352.21,181.934C1352.33,181.811 1352.53,181.77 1352.7,181.845C1353.37,182.134 1354.08,182.281 1354.82,182.281C1357.73,182.281 1360.1,179.949 1360.1,177.084C1360.1,174.218 1357.73,171.887 1354.82,171.887C1351.91,171.887 1349.54,174.218 1349.54,177.084C1349.54,177.809 1349.69,178.511 1349.98,179.169C1350.06,179.34 1350.02,179.532 1349.89,179.657C1349.89,179.658 1349.89,179.66 1349.89,179.661L1343.9,185.557L1343.9,186.358L1348.83,181.503C1348.99,181.347 1349.25,181.347 1349.4,181.503C1349.56,181.659 1349.56,181.912 1349.4,182.067L1343.9,187.486L1343.9,188.113L1345.93,188.113L1346.56,187.49L1346.56,186.145C1346.56,185.901 1346.76,185.703 1347.01,185.702L1348.11,185.702L1348.11,185.267C1348.11,185.023 1348.31,184.826 1348.56,184.824L1349.01,184.824L1349.01,183.87C1349.01,183.626 1349.21,183.428 1349.46,183.426L1350.69,183.426ZM1356.7,173.571C1355.77,173.571 1355.01,174.316 1355.01,175.232C1355.01,176.148 1355.77,176.893 1356.7,176.893C1357.63,176.893 1358.39,176.148 1358.39,175.232C1358.39,174.316 1357.63,173.571 1356.7,173.571ZM1356.7,176.006C1356.27,176.006 1355.91,175.659 1355.91,175.232C1355.91,174.805 1356.27,174.458 1356.7,174.458C1357.13,174.458 1357.49,174.805 1357.49,175.232C1357.49,175.659 1357.13,176.006 1356.7,176.006Z" style="fill:rgb(135,135,135);"/>
    </g>
</svg>
