<svg width="52" height="52" viewBox="0 0 52 52" fill="none" xmlns="http://www.w3.org/2000/svg">
<path d="M47.2499 25.8699C50.109 25.8699 52.4782 28.2023 51.9172 30.9968C51.2377 34.3815 49.8887 37.6157 47.9303 40.5036C44.9999 44.8249 40.8392 48.173 35.9837 50.1171C31.1282 52.0612 25.8001 52.5123 20.6852 51.4123C15.5704 50.3123 10.9028 47.7116 7.28327 43.9449C3.66375 40.1782 1.25794 35.4179 0.375484 30.2767C-0.50697 25.1354 0.174321 19.8486 2.33167 15.0966C4.48902 10.3447 8.02368 6.34501 12.4807 3.61249C15.4594 1.78633 18.7589 0.581971 22.1805 0.0508971C25.0055 -0.387583 27.2412 2.07222 27.1182 4.91955C26.9953 7.76687 24.5239 9.89416 21.7789 10.691C20.4238 11.0844 19.1201 11.6584 17.9047 12.4035C15.2081 14.0568 13.0695 16.4767 11.7643 19.3518C10.459 22.2268 10.0468 25.4255 10.5807 28.5361C11.1146 31.6467 12.5702 34.5268 14.7601 36.8058C16.95 39.0848 19.774 40.6583 22.8687 41.3238C25.9633 41.9893 29.187 41.7164 32.1247 40.5402C35.0624 39.3639 37.5797 37.3382 39.3527 34.7237C40.1518 33.5454 40.7832 32.2717 41.2358 30.9391C42.1525 28.2397 44.3909 25.8699 47.2499 25.8699Z" fill="white"/>
<path d="M34.6214 23.4048C34.6214 26.6723 31.9642 29.321 28.6863 29.321C25.4084 29.321 22.7512 26.6723 22.7512 23.4048C22.7512 20.1373 25.4084 17.4886 28.6863 17.4886C31.9642 17.4886 34.6214 20.1373 34.6214 23.4048Z" fill="white"/>
</svg>
