<?xml version="1.0" encoding="UTF-8" standalone="no"?>
<!DOCTYPE svg PUBLIC "-//W3C//DTD SVG 1.1//EN" "http://www.w3.org/Graphics/SVG/1.1/DTD/svg11.dtd">
<svg width="100%" height="100%" viewBox="0 0 24 24" version="1.1" xmlns="http://www.w3.org/2000/svg" xmlns:xlink="http://www.w3.org/1999/xlink" xml:space="preserve" xmlns:serif="http://www.serif.com/" style="fill-rule:evenodd;clip-rule:evenodd;stroke-linejoin:round;stroke-miterlimit:1.41421;">
    <g id="Forma-1" serif:id="Forma 1" transform="matrix(1,0,0,1,-1341,-206)">
        <path d="M1351,210.84L1351,212.153C1348.24,213.03 1346.23,215.673 1346.23,218.789C1346.23,222.62 1349.27,225.737 1353,225.737C1356.73,225.737 1359.77,222.62 1359.77,218.789C1359.77,215.673 1357.76,213.03 1355,212.153L1355,210.84C1355.08,210.861 1355.16,210.883 1355.24,210.907C1355.24,210.908 1355.25,210.907 1355.25,210.908C1355.26,210.912 1355.28,210.918 1355.29,210.922C1355.48,210.979 1355.66,211.042 1355.84,211.112C1355.87,211.123 1355.89,211.135 1355.92,211.146C1358.69,212.261 1360.7,214.913 1360.97,218.079C1360.97,218.108 1360.97,218.137 1360.98,218.166C1360.99,218.371 1361,218.579 1361,218.789C1361,223.324 1357.42,227 1353,227C1348.58,227 1345,223.324 1345,218.789C1345,218.579 1345.01,218.371 1345.03,218.165C1345.03,218.136 1345.03,218.107 1345.03,218.078C1345.26,215.354 1346.78,213.012 1348.96,211.7C1348.97,211.698 1348.97,211.696 1348.98,211.694C1349.33,211.482 1349.7,211.297 1350.09,211.142C1350.12,211.131 1350.14,211.12 1350.17,211.109C1350.35,211.039 1350.53,210.976 1350.72,210.919C1350.73,210.915 1350.75,210.909 1350.76,210.905C1350.76,210.904 1350.77,210.905 1350.77,210.904C1350.85,210.881 1350.92,210.86 1351,210.84ZM1353,218.158C1353.34,218.158 1353.62,217.875 1353.62,217.526L1353.62,209.631C1353.62,209.283 1353.34,209 1353,209C1352.66,209 1352.38,209.283 1352.38,209.631L1352.38,217.526C1352.38,217.875 1352.66,218.158 1353,218.158Z" style="fill:rgb(135,135,135);"/>
    </g>
</svg>
