<?xml version="1.0" encoding="UTF-8" standalone="no"?>
<!DOCTYPE svg PUBLIC "-//W3C//DTD SVG 1.1//EN" "http://www.w3.org/Graphics/SVG/1.1/DTD/svg11.dtd">
<svg width="100%" height="100%" viewBox="0 0 24 24" version="1.1" xmlns="http://www.w3.org/2000/svg" xmlns:xlink="http://www.w3.org/1999/xlink" xml:space="preserve" xmlns:serif="http://www.serif.com/" style="fill-rule:evenodd;clip-rule:evenodd;stroke-linejoin:round;stroke-miterlimit:1.41421;">
    <g id="Forma-1" serif:id="Forma 1" transform="matrix(1,0,0,1,-1290.58,-24)">
        <path d="M1313.48,27.622C1313.07,27.222 1312.59,27.022 1312.03,27.022L1293.13,27.022C1292.57,27.022 1292.08,27.222 1291.68,27.622C1291.28,28.021 1291.08,28.502 1291.08,29.063L1291.08,42.937C1291.08,43.499 1291.28,43.979 1291.68,44.378C1292.08,44.778 1292.57,44.978 1293.13,44.978L1312.03,44.978C1312.59,44.978 1313.07,44.778 1313.48,44.378C1313.88,43.979 1314.08,43.498 1314.08,42.937L1314.08,29.063C1314.08,28.502 1313.88,28.021 1313.48,27.622ZM1312.44,42.937C1312.44,43.048 1312.39,43.143 1312.31,43.224C1312.23,43.305 1312.14,43.345 1312.03,43.345L1293.13,43.345C1293.02,43.345 1292.92,43.305 1292.84,43.224C1292.76,43.143 1292.72,43.048 1292.72,42.937L1292.72,33.143C1293,33.449 1293.29,33.73 1293.61,33.985C1295.9,35.736 1297.72,37.173 1299.08,38.295C1299.51,38.661 1299.87,38.946 1300.14,39.15C1300.41,39.354 1300.78,39.56 1301.25,39.768C1301.72,39.977 1302.15,40.08 1302.57,40.08L1302.59,40.08C1303,40.08 1303.44,39.977 1303.91,39.768C1304.37,39.56 1304.74,39.354 1305.02,39.15C1305.29,38.946 1305.65,38.661 1306.08,38.295C1307.43,37.173 1309.26,35.736 1311.55,33.985C1311.87,33.73 1312.16,33.449 1312.44,33.143L1312.44,42.937ZM1312.44,29.394L1312.44,29.534C1312.44,30.036 1312.24,30.595 1311.84,31.211C1311.44,31.828 1311.01,32.319 1310.55,32.684C1308.9,33.977 1307.18,35.324 1305.4,36.727C1305.35,36.769 1305.2,36.895 1304.95,37.103C1304.7,37.311 1304.51,37.471 1304.36,37.581C1304.22,37.692 1304.03,37.826 1303.79,37.983C1303.56,38.14 1303.34,38.257 1303.14,38.333C1302.95,38.41 1302.76,38.448 1302.59,38.448L1302.58,38.448L1302.57,38.448C1302.39,38.448 1302.21,38.41 1302.01,38.333C1301.82,38.257 1301.6,38.14 1301.37,37.983C1301.13,37.826 1300.94,37.692 1300.8,37.581C1300.65,37.471 1300.45,37.311 1300.2,37.103C1299.96,36.895 1299.81,36.769 1299.76,36.727C1297.98,35.324 1296.26,33.977 1294.61,32.684C1293.35,31.698 1292.72,30.491 1292.72,29.062C1292.72,28.952 1292.76,28.856 1292.84,28.776C1292.92,28.695 1293.02,28.654 1293.13,28.654L1312.03,28.654C1312.09,28.693 1312.15,28.703 1312.2,28.686C1312.26,28.669 1312.3,28.701 1312.32,28.782C1312.35,28.863 1312.37,28.901 1312.39,28.897C1312.41,28.892 1312.42,28.946 1312.43,29.056C1312.43,29.167 1312.44,29.222 1312.44,29.222L1312.44,29.394Z" style="fill:rgb(167,177,185);fill-rule:nonzero;"/>
    </g>
</svg>
