<?xml version="1.0" encoding="UTF-8" standalone="no"?>
<!DOCTYPE svg PUBLIC "-//W3C//DTD SVG 1.1//EN" "http://www.w3.org/Graphics/SVG/1.1/DTD/svg11.dtd">
<svg width="100%" height="100%" viewBox="0 0 24 24" version="1.1" xmlns="http://www.w3.org/2000/svg" xmlns:xlink="http://www.w3.org/1999/xlink" xml:space="preserve" xmlns:serif="http://www.serif.com/" style="fill-rule:evenodd;clip-rule:evenodd;stroke-linejoin:round;stroke-miterlimit:1.41421;">
    <g id="Ellipse-3-copy-3" serif:id="Ellipse 3 copy 3" transform="matrix(0.915952,0,0,1,-658.477,-328)">
        <path d="M725.172,338C726.371,338 727.344,338.896 727.344,340C727.344,341.104 726.371,342 725.172,342C723.973,342 723,341.104 723,340C723,338.896 723.973,338 725.172,338ZM732,338C733.19,338 734.156,338.896 734.156,340C734.156,341.104 733.19,342 732,342C730.81,342 729.844,341.104 729.844,340C729.844,338.896 730.81,338 732,338ZM738.828,338C740.027,338 741,338.896 741,340C741,341.104 740.027,342 738.828,342C737.629,342 736.656,341.104 736.656,340C736.656,338.896 737.629,338 738.828,338Z" style="fill:rgb(213,220,227);"/>
    </g>
</svg>
