<?xml version="1.0" encoding="UTF-8" standalone="no"?>
<!DOCTYPE svg PUBLIC "-//W3C//DTD SVG 1.1//EN" "http://www.w3.org/Graphics/SVG/1.1/DTD/svg11.dtd">
<svg width="100%" height="100%" viewBox="0 0 24 24" version="1.1" xmlns="http://www.w3.org/2000/svg" xmlns:xlink="http://www.w3.org/1999/xlink" xml:space="preserve" xmlns:serif="http://www.serif.com/" style="fill-rule:evenodd;clip-rule:evenodd;stroke-linejoin:round;stroke-miterlimit:1.41421;">
    <g id="Shape-1" serif:id="Shape 1" transform="matrix(1,0,0,1,-1239.99,-24)">
        <path d="M1260.36,41.014C1258.98,39.583 1258.2,37.641 1258.2,35.616L1258.2,33.723C1258.2,30.71 1256.2,28.182 1253.5,27.485L1253.5,25.56C1253.5,24.699 1252.82,24 1251.99,24C1251.16,24 1250.48,24.699 1250.48,25.56L1250.48,27.485C1247.78,28.182 1245.78,30.71 1245.78,33.723L1245.78,35.616C1245.78,37.641 1245,39.582 1243.62,41.014C1243.01,41.643 1242.83,42.59 1243.16,43.412C1243.49,44.234 1244.26,44.77 1245.12,44.77L1248.87,44.77C1248.87,46.554 1250.27,48 1251.99,48C1253.71,48 1255.11,46.554 1255.11,44.77L1258.86,44.77C1259.71,44.77 1260.49,44.234 1260.82,43.412C1261.15,42.59 1260.97,41.643 1260.36,41.014ZM1251.99,46.415C1251.11,46.415 1250.4,45.677 1250.4,44.77L1253.58,44.77C1253.58,45.677 1252.86,46.415 1251.99,46.415ZM1259.4,42.805C1259.31,43.036 1259.1,43.185 1258.86,43.185L1245.12,43.185C1244.88,43.185 1244.66,43.036 1244.57,42.805C1244.48,42.575 1244.53,42.312 1244.7,42.135C1246.38,40.394 1247.31,38.079 1247.31,35.616L1247.31,33.723C1247.31,31.052 1249.41,28.879 1251.99,28.879C1254.57,28.879 1256.67,31.052 1256.67,33.723L1256.67,35.616C1256.67,38.079 1257.59,40.394 1259.28,42.135C1259.45,42.312 1259.5,42.575 1259.4,42.805Z" style="fill:rgb(167,176,186);fill-rule:nonzero;"/>
    </g>
</svg>
