<?xml version="1.0" encoding="UTF-8" standalone="no"?>
<!DOCTYPE svg PUBLIC "-//W3C//DTD SVG 1.1//EN" "http://www.w3.org/Graphics/SVG/1.1/DTD/svg11.dtd">
<svg width="100%" height="100%" viewBox="0 0 24 24" version="1.1" xmlns="http://www.w3.org/2000/svg" xmlns:xlink="http://www.w3.org/1999/xlink" xml:space="preserve" xmlns:serif="http://www.serif.com/" style="fill-rule:evenodd;clip-rule:evenodd;stroke-linejoin:round;stroke-miterlimit:1.41421;">
    <g id="Forma-1" serif:id="Forma 1" transform="matrix(1,0,0,1,-1476,-766.999)">
        <path d="M1489.59,770.998C1489.86,770.999 1490.12,771.089 1490.38,771.269C1490.63,771.45 1490.81,771.668 1490.91,771.926L1491.61,773.665L1494.68,773.665C1494.78,773.665 1494.85,773.697 1494.91,773.759C1494.97,773.821 1495,773.901 1495,773.999L1495,774.665C1495,774.763 1494.97,774.843 1494.91,774.905C1494.85,774.968 1494.78,774.999 1494.68,774.999L1493.73,774.999L1493.73,784.876C1493.73,785.451 1493.57,785.95 1493.26,786.37C1492.95,786.79 1492.58,787 1492.14,787L1483.86,787C1483.42,787 1483.05,786.797 1482.74,786.391C1482.43,785.985 1482.27,785.494 1482.27,784.917L1482.27,774.999L1481.32,774.999C1481.22,774.998 1481.15,774.967 1481.09,774.905C1481.03,774.843 1481,774.763 1481,774.665L1481,773.999C1481,773.901 1481.03,773.821 1481.09,773.759C1481.15,773.697 1481.22,773.666 1481.32,773.665L1484.39,773.665L1485.09,771.926C1485.18,771.668 1485.36,771.45 1485.62,771.269C1485.88,771.089 1486.14,770.999 1486.41,770.998L1489.59,770.998ZM1492.14,785.667C1492.16,785.666 1492.19,785.637 1492.24,785.578C1492.29,785.519 1492.34,785.426 1492.39,785.297C1492.43,785.169 1492.45,785.028 1492.45,784.875L1492.45,774.999L1483.54,774.999L1483.54,784.875C1483.54,785.028 1483.57,785.169 1483.61,785.297C1483.66,785.426 1483.71,785.519 1483.76,785.578C1483.81,785.638 1483.84,785.667 1483.86,785.667L1492.14,785.667ZM1485.77,776.999C1485.87,777 1485.94,777.031 1486,777.093C1486.06,777.155 1486.09,777.235 1486.09,777.332L1486.09,783.333C1486.09,783.431 1486.06,783.51 1486,783.573C1485.94,783.635 1485.87,783.667 1485.77,783.667L1485.13,783.667C1485.04,783.667 1484.97,783.635 1484.91,783.573C1484.85,783.51 1484.82,783.431 1484.82,783.333L1484.82,777.332C1484.82,777.235 1484.85,777.155 1484.91,777.093C1484.97,777.031 1485.04,777 1485.13,776.999L1485.77,776.999ZM1488.32,776.999C1488.41,777 1488.49,777.031 1488.55,777.093C1488.61,777.155 1488.64,777.235 1488.64,777.332L1488.64,783.333C1488.64,783.431 1488.61,783.51 1488.55,783.573C1488.49,783.635 1488.41,783.667 1488.32,783.667L1487.68,783.667C1487.59,783.667 1487.51,783.635 1487.45,783.573C1487.39,783.51 1487.36,783.431 1487.36,783.333L1487.36,777.332C1487.36,777.235 1487.39,777.155 1487.45,777.093C1487.51,777.031 1487.59,777 1487.68,776.999L1488.32,776.999ZM1490.86,776.999C1490.96,777 1491.03,777.031 1491.09,777.093C1491.15,777.155 1491.18,777.235 1491.18,777.332L1491.18,783.333C1491.18,783.431 1491.15,783.51 1491.09,783.573C1491.03,783.635 1490.96,783.667 1490.86,783.667L1490.23,783.667C1490.13,783.667 1490.06,783.635 1490,783.573C1489.94,783.51 1489.91,783.431 1489.91,783.333L1489.91,777.332C1489.91,777.235 1489.94,777.155 1490,777.093C1490.06,777.031 1490.13,777 1490.23,776.999L1490.86,776.999ZM1490.23,773.665L1489.75,772.446C1489.7,772.384 1489.65,772.346 1489.58,772.332L1486.43,772.332C1486.36,772.346 1486.31,772.384 1486.26,772.446L1485.77,773.665L1490.23,773.665Z" style="fill:rgb(143,155,167);"/>
    </g>
</svg>
