<?xml version="1.0" encoding="UTF-8" standalone="no"?>
<!DOCTYPE svg PUBLIC "-//W3C//DTD SVG 1.1//EN" "http://www.w3.org/Graphics/SVG/1.1/DTD/svg11.dtd">
<svg width="100%" height="100%" viewBox="0 0 24 24" version="1.1" xmlns="http://www.w3.org/2000/svg" xmlns:xlink="http://www.w3.org/1999/xlink" xml:space="preserve" xmlns:serif="http://www.serif.com/" style="fill-rule:evenodd;clip-rule:evenodd;stroke-linejoin:round;stroke-miterlimit:1.41421;">
    <g id="Forma-1" serif:id="Forma 1" transform="matrix(1,0,0,1,-23.016,-469.016)">
        <path d="M44.609,471.016C44.834,471.016 45.016,471.198 45.016,471.423L45.016,490.609C45.016,490.834 44.834,491.016 44.609,491.016C44.384,491.016 44.202,490.834 44.202,490.609L44.202,471.83L25.83,471.83L25.83,490.202L41.732,490.202C41.956,490.202 42.139,490.384 42.139,490.609C42.139,490.834 41.956,491.016 41.732,491.016L25.423,491.016C25.198,491.016 25.016,490.834 25.016,490.609L25.016,471.423C25.016,471.198 25.198,471.016 25.423,471.016L44.609,471.016ZM29.481,483.661C28.62,483.661 27.92,484.361 27.92,485.222C27.92,486.082 28.62,486.782 29.481,486.782C30.341,486.782 31.041,486.082 31.041,485.222C31.041,484.361 30.341,483.661 29.481,483.661ZM29.481,485.968C29.069,485.968 28.734,485.633 28.734,485.222C28.734,484.81 29.069,484.475 29.481,484.475C29.892,484.475 30.227,484.81 30.227,485.222C30.227,485.633 29.892,485.968 29.481,485.968ZM41.758,484.815C41.984,484.815 42.165,484.997 42.165,485.222C42.165,485.446 41.983,485.629 41.758,485.629L32.262,485.629C32.037,485.629 31.855,485.446 31.855,485.222C31.855,484.997 32.037,484.815 32.262,484.815L41.758,484.815ZM29.481,479.456C29.256,479.456 29.074,479.638 29.074,479.863C29.074,480.088 29.256,480.27 29.481,480.27C29.892,480.27 30.227,480.605 30.227,481.016C30.227,481.427 29.892,481.762 29.481,481.762C29.069,481.762 28.734,481.427 28.734,481.016C28.734,480.791 28.552,480.609 28.327,480.609C28.103,480.609 27.92,480.791 27.92,481.016C27.92,481.876 28.62,482.576 29.481,482.576C30.341,482.576 31.041,481.876 31.041,481.016C31.041,480.156 30.341,479.456 29.481,479.456ZM41.758,480.609C41.984,480.609 42.165,480.791 42.165,481.016C42.165,481.241 41.983,481.423 41.758,481.423L32.262,481.423C32.037,481.423 31.855,481.241 31.855,481.016C31.855,480.791 32.037,480.609 32.262,480.609L41.758,480.609ZM29.481,475.25C28.62,475.25 27.92,475.95 27.92,476.81C27.92,477.671 28.62,478.371 29.481,478.371C30.341,478.371 31.041,477.671 31.041,476.81C31.041,475.95 30.341,475.25 29.481,475.25ZM29.481,477.557C29.069,477.557 28.734,477.222 28.734,476.81C28.734,476.399 29.069,476.064 29.481,476.064C29.892,476.064 30.227,476.399 30.227,476.81C30.227,477.222 29.892,477.557 29.481,477.557ZM41.758,476.403C41.984,476.404 42.165,476.586 42.165,476.81C42.165,477.035 41.983,477.217 41.758,477.217L32.262,477.217C32.037,477.217 31.855,477.035 31.855,476.81C31.855,476.586 32.037,476.404 32.262,476.403L41.758,476.403Z" style="fill:white;"/>
    </g>
</svg>
