<?xml version="1.0" encoding="UTF-8" standalone="no"?>
<!DOCTYPE svg PUBLIC "-//W3C//DTD SVG 1.1//EN" "http://www.w3.org/Graphics/SVG/1.1/DTD/svg11.dtd">
<svg width="100%" height="100%" viewBox="0 0 30 30" version="1.1" xmlns="http://www.w3.org/2000/svg" xmlns:xlink="http://www.w3.org/1999/xlink" xml:space="preserve" xmlns:serif="http://www.serif.com/" style="fill-rule:evenodd;clip-rule:evenodd;stroke-linejoin:round;stroke-miterlimit:1.41421;">
    <g id="Shape-1" serif:id="Shape 1" transform="matrix(1,0,0,1,-552.999,-203.005)">
        <path d="M582.18,208.89L576.508,208.89C576.062,208.89 575.7,209.259 575.7,209.714L575.7,215.317L571.644,215.317L571.644,205.824C571.644,205.369 571.282,205 570.836,205L565.164,205C564.718,205 564.356,205.369 564.356,205.824L564.356,221.416L560.299,221.416L560.299,214.412C560.299,213.957 559.938,213.588 559.492,213.588L553.82,213.588C553.374,213.588 553.012,213.957 553.012,214.412L553.012,230.187C553.012,230.642 553.374,231.011 553.82,231.011L582.18,231.011C582.626,231.011 582.987,230.642 582.987,230.187L582.987,209.714C582.987,209.259 582.626,208.89 582.18,208.89ZM558.684,229.363L554.628,229.363L554.628,215.236L558.684,215.236L558.684,229.363ZM564.356,229.363L560.3,229.363L560.3,223.064L564.356,223.064L564.356,229.363ZM570.028,216.141L570.028,229.363L565.972,229.363L565.972,206.648L570.028,206.648L570.028,216.141ZM575.7,229.363L571.644,229.363L571.644,216.965L575.7,216.965L575.7,229.363ZM581.372,229.363L577.316,229.363L577.316,216.141L577.316,210.538L581.372,210.538L581.372,229.363Z" style="fill:rgb(167,177,185);fill-rule:nonzero;"/>
    </g>
</svg>
