<?xml version="1.0" encoding="UTF-8" standalone="no"?>
<!DOCTYPE svg PUBLIC "-//W3C//DTD SVG 1.1//EN" "http://www.w3.org/Graphics/SVG/1.1/DTD/svg11.dtd">
<svg width="100%" height="100%" viewBox="0 0 24 24" version="1.1" xmlns="http://www.w3.org/2000/svg" xmlns:xlink="http://www.w3.org/1999/xlink" xml:space="preserve" xmlns:serif="http://www.serif.com/" style="fill-rule:evenodd;clip-rule:evenodd;stroke-linejoin:round;stroke-miterlimit:1.41421;">
    <g id="Forma-1" serif:id="Forma 1" transform="matrix(1,0,0,1,-261.452,-25)">
        <path d="M281.649,44.395L277.481,39.939C278.553,38.63 279.14,36.983 279.14,35.267C279.14,31.26 275.968,28 272.069,28C268.17,28 264.998,31.26 264.998,35.267C264.998,39.275 268.17,42.535 272.069,42.535C273.533,42.535 274.927,42.081 276.12,41.22L280.32,45.709C280.495,45.896 280.731,46 280.984,46C281.224,46 281.451,45.906 281.623,45.735C281.99,45.373 282.002,44.772 281.649,44.395ZM272.069,29.896C274.951,29.896 277.295,32.306 277.295,35.267C277.295,38.229 274.951,40.639 272.069,40.639C269.187,40.639 266.843,38.229 266.843,35.267C266.843,32.306 269.187,29.896 272.069,29.896Z" style="fill:rgb(167,177,185);fill-rule:nonzero;"/>
    </g>
</svg>
