<?xml version="1.0" encoding="UTF-8" standalone="no"?>
<!DOCTYPE svg PUBLIC "-//W3C//DTD SVG 1.1//EN" "http://www.w3.org/Graphics/SVG/1.1/DTD/svg11.dtd">
<svg width="100%" height="100%" viewBox="0 0 24 24" version="1.1" xmlns="http://www.w3.org/2000/svg" xmlns:xlink="http://www.w3.org/1999/xlink" xml:space="preserve" xmlns:serif="http://www.serif.com/" style="fill-rule:evenodd;clip-rule:evenodd;stroke-linejoin:round;stroke-miterlimit:1.41421;">
    <g id="Shape-1" serif:id="Shape 1" transform="matrix(1,0,0,1,-1340.02,-126)">
        <path d="M1352.78,129C1353.33,129.003 1353.78,129.393 1353.87,129.929L1354.08,131.177C1354.52,131.309 1354.95,131.485 1355.35,131.7L1356.4,130.955C1356.59,130.82 1356.81,130.748 1357.04,130.748C1357.34,130.748 1357.62,130.865 1357.83,131.075L1358.95,132.196C1359.34,132.58 1359.38,133.185 1359.07,133.629L1358.32,134.67C1358.53,135.061 1358.7,135.471 1358.83,135.896L1360.09,136.11C1360.63,136.201 1361.02,136.663 1361.02,137.208L1361.02,138.791C1361.02,139.336 1360.62,139.799 1360.09,139.889L1358.82,140.1C1358.7,140.521 1358.52,140.931 1358.32,141.326L1359.06,142.371C1359.38,142.815 1359.32,143.42 1358.94,143.804L1357.82,144.924C1357.61,145.135 1357.33,145.251 1357.03,145.251C1356.8,145.251 1356.58,145.18 1356.39,145.045L1355.35,144.3C1354.96,144.507 1354.55,144.676 1354.12,144.808L1353.91,146.071C1353.82,146.609 1353.36,147 1352.81,147L1351.22,147C1350.68,147 1350.22,146.609 1350.13,146.071L1349.92,144.808C1349.51,144.68 1349.11,144.518 1348.73,144.319L1347.67,145.071C1347.48,145.206 1347.26,145.278 1347.03,145.278C1346.73,145.278 1346.45,145.161 1346.24,144.951L1345.12,143.83C1344.74,143.446 1344.69,142.841 1345,142.397L1345.74,141.367C1345.53,140.976 1345.36,140.566 1345.23,140.145L1343.95,139.927C1343.41,139.837 1343.02,139.374 1343.02,138.829L1343.02,137.246C1343.02,136.701 1343.41,136.238 1343.95,136.148L1345.2,135.937C1345.33,135.512 1345.49,135.103 1345.7,134.708L1344.95,133.651C1344.63,133.207 1344.68,132.602 1345.07,132.218L1346.19,131.098C1346.4,130.888 1346.68,130.771 1346.98,130.771C1347.21,130.771 1347.43,130.842 1347.62,130.978L1348.66,131.722C1349.05,131.512 1349.46,131.339 1349.88,131.207L1350.1,129.929C1350.19,129.393 1350.64,129.003 1351.19,129L1352.78,129ZM1360.01,138.791L1360.01,137.208C1360.01,137.159 1359.98,137.118 1359.93,137.111L1358.35,136.843C1358.15,136.813 1357.99,136.667 1357.94,136.471C1357.8,135.918 1357.58,135.388 1357.29,134.896C1357.19,134.723 1357.2,134.505 1357.31,134.343L1358.24,133.038C1358.27,132.997 1358.26,132.944 1358.23,132.91L1357.11,131.79C1357.08,131.763 1357.05,131.76 1357.04,131.76C1357.02,131.76 1357,131.767 1356.98,131.778L1355.68,132.711C1355.52,132.828 1355.31,132.835 1355.13,132.734C1354.63,132.436 1354.09,132.215 1353.52,132.072C1353.33,132.023 1353.18,131.861 1353.14,131.662L1352.88,130.094C1352.87,130.045 1352.83,130.011 1352.78,130.011L1351.2,130.011C1351.15,130.011 1351.11,130.045 1351.1,130.094L1350.83,131.685C1350.8,131.88 1350.65,132.038 1350.46,132.091C1349.91,132.233 1349.38,132.459 1348.89,132.752C1348.72,132.854 1348.5,132.847 1348.33,132.73L1347.04,131.805C1347.02,131.794 1347,131.786 1346.98,131.786C1346.96,131.786 1346.93,131.79 1346.91,131.816L1345.79,132.937C1345.76,132.97 1345.75,133.027 1345.78,133.065L1346.71,134.381C1346.83,134.542 1346.84,134.757 1346.74,134.929C1346.45,135.422 1346.24,135.956 1346.1,136.509C1346.05,136.704 1345.89,136.851 1345.69,136.885L1344.12,137.148C1344.07,137.156 1344.04,137.197 1344.04,137.246L1344.04,138.829C1344.04,138.878 1344.07,138.919 1344.12,138.927L1345.71,139.197C1345.9,139.231 1346.06,139.378 1346.12,139.57C1346.26,140.122 1346.48,140.653 1346.78,141.141C1346.88,141.314 1346.87,141.532 1346.76,141.698L1345.83,142.995C1345.8,143.037 1345.81,143.089 1345.84,143.123L1346.96,144.243C1346.99,144.27 1347.02,144.274 1347.03,144.274C1347.05,144.274 1347.07,144.266 1347.09,144.255L1348.4,143.319C1348.49,143.255 1348.6,143.225 1348.7,143.225C1348.78,143.225 1348.87,143.247 1348.95,143.292C1349.44,143.571 1349.96,143.785 1350.5,143.924C1350.69,143.973 1350.83,144.131 1350.87,144.33L1351.13,145.909C1351.14,145.958 1351.18,145.992 1351.23,145.992L1352.81,145.992C1352.86,145.989 1352.9,145.956 1352.91,145.909L1353.17,144.33C1353.2,144.135 1353.35,143.973 1353.55,143.924C1354.1,143.781 1354.63,143.563 1355.12,143.27C1355.29,143.168 1355.51,143.176 1355.67,143.292L1356.98,144.221C1356.99,144.232 1357.01,144.24 1357.03,144.24C1357.05,144.24 1357.08,144.236 1357.11,144.21L1358.23,143.089C1358.26,143.055 1358.26,142.999 1358.24,142.961L1357.31,141.653C1357.19,141.487 1357.18,141.273 1357.29,141.1C1357.58,140.608 1357.8,140.077 1357.94,139.525C1357.99,139.333 1358.15,139.186 1358.35,139.152L1359.92,138.889C1359.97,138.882 1360.01,138.844 1360.01,138.791ZM1352.02,134.114C1349.88,134.114 1348.14,135.855 1348.14,137.998C1348.14,140.141 1349.88,141.882 1352.02,141.882C1354.16,141.882 1355.9,140.141 1355.9,137.998C1355.9,135.855 1354.16,134.114 1352.02,134.114ZM1352.02,140.867C1350.44,140.867 1349.15,139.581 1349.15,137.998C1349.15,136.415 1350.44,135.129 1352.02,135.129C1353.6,135.129 1354.89,136.415 1354.89,137.998C1354.89,139.581 1353.6,140.867 1352.02,140.867Z" style="fill:rgb(135,135,135);"/>
    </g>
</svg>
