<?xml version="1.0" encoding="UTF-8" standalone="no"?>
<!DOCTYPE svg PUBLIC "-//W3C//DTD SVG 1.1//EN" "http://www.w3.org/Graphics/SVG/1.1/DTD/svg11.dtd">
<svg width="100%" height="100%" viewBox="0 0 24 24" version="1.1" xmlns="http://www.w3.org/2000/svg" xmlns:xlink="http://www.w3.org/1999/xlink" xml:space="preserve" xmlns:serif="http://www.serif.com/" style="fill-rule:evenodd;clip-rule:evenodd;stroke-linejoin:round;stroke-miterlimit:1.41421;">
    <g id="Shape-1" serif:id="Shape 1" transform="matrix(1,0,0,1,-23,-221)">
        <path d="M35.894,223C36.413,223.003 36.855,223.385 36.931,223.891C36.987,224.267 37.041,224.653 37.092,225.039C37.098,225.086 37.13,225.123 37.172,225.135C37.818,225.313 38.441,225.571 39.024,225.902C39.063,225.924 39.112,225.92 39.149,225.892C39.458,225.654 39.769,225.419 40.075,225.193C40.488,224.888 41.074,224.932 41.439,225.296L42.703,226.561C43.067,226.925 43.112,227.511 42.806,227.925C42.58,228.231 42.345,228.542 42.108,228.85C42.079,228.887 42.075,228.937 42.097,228.976C42.428,229.559 42.686,230.182 42.864,230.827C42.876,230.87 42.914,230.902 42.961,230.908C43.346,230.958 43.732,231.012 44.108,231.068C44.617,231.144 45,231.59 45,232.106L45,233.894C45,234.409 44.617,234.855 44.108,234.931C43.732,234.987 43.346,235.041 42.961,235.091C42.914,235.097 42.876,235.129 42.864,235.172C42.686,235.817 42.428,236.44 42.097,237.023C42.075,237.063 42.079,237.112 42.108,237.149C42.345,237.457 42.58,237.769 42.806,238.075C43.112,238.488 43.067,239.074 42.703,239.438L41.439,240.703C41.074,241.067 40.488,241.112 40.075,240.806C39.769,240.58 39.458,240.345 39.149,240.108C39.112,240.079 39.063,240.075 39.023,240.097C38.441,240.428 37.818,240.686 37.172,240.864C37.129,240.876 37.098,240.914 37.092,240.96C37.041,241.346 36.987,241.732 36.931,242.108C36.855,242.616 36.409,243 35.894,243L34.106,243C33.59,243 33.145,242.616 33.068,242.108C33.012,241.733 32.958,241.347 32.908,240.961C32.902,240.914 32.87,240.876 32.827,240.864C32.182,240.686 31.559,240.428 30.976,240.097C30.937,240.075 30.888,240.079 30.85,240.108C30.542,240.345 30.23,240.58 29.925,240.806C29.512,241.112 28.925,241.067 28.561,240.703L27.297,239.439C26.932,239.074 26.888,238.488 27.194,238.075C27.42,237.769 27.655,237.458 27.892,237.149C27.92,237.112 27.925,237.063 27.903,237.023C27.571,236.44 27.313,235.818 27.135,235.172C27.124,235.129 27.086,235.098 27.039,235.092C26.654,235.041 26.268,234.987 25.891,234.931C25.383,234.855 25,234.409 25,233.894L25,232.106C25,231.59 25.383,231.144 25.891,231.068C26.268,231.012 26.654,230.958 27.039,230.908C27.086,230.902 27.124,230.87 27.135,230.827C27.313,230.182 27.571,229.559 27.903,228.976C27.925,228.937 27.921,228.887 27.892,228.85C27.655,228.542 27.42,228.231 27.194,227.925C26.888,227.511 26.932,226.925 27.297,226.561L28.561,225.296C28.925,224.932 29.511,224.888 29.925,225.193C30.23,225.419 30.542,225.654 30.85,225.892C30.888,225.92 30.937,225.924 30.976,225.902C31.559,225.571 32.182,225.313 32.827,225.135C32.87,225.123 32.902,225.086 32.908,225.039C32.958,224.653 33.012,224.267 33.069,223.891C33.144,223.385 33.587,223.003 34.106,223L35.894,223ZM44.066,233.894L44.066,232.106C44.066,232.049 44.025,232 43.97,231.992C43.6,231.937 43.22,231.883 42.84,231.834C42.42,231.779 42.076,231.481 41.964,231.075C41.807,230.504 41.578,229.953 41.285,229.437C41.077,229.071 41.109,228.617 41.368,228.281C41.601,227.977 41.833,227.671 42.055,227.369C42.088,227.325 42.083,227.261 42.043,227.221L40.778,225.957C40.738,225.917 40.675,225.911 40.63,225.944C40.33,226.167 40.023,226.398 39.719,226.632C39.383,226.89 38.929,226.923 38.562,226.715C38.047,226.422 37.495,226.193 36.924,226.036C36.518,225.924 36.221,225.58 36.166,225.16C36.116,224.779 36.063,224.399 36.008,224.029C35.999,223.975 35.95,223.933 35.894,223.933L34.106,223.933C34.049,223.933 34,223.975 33.992,224.029C33.937,224.399 33.884,224.78 33.834,225.16C33.779,225.58 33.481,225.924 33.075,226.036C32.504,226.193 31.953,226.422 31.437,226.715C31.071,226.923 30.617,226.89 30.281,226.632C29.977,226.398 29.67,226.167 29.369,225.944C29.325,225.911 29.261,225.917 29.221,225.957L27.957,227.221C27.917,227.261 27.912,227.325 27.944,227.369C28.168,227.671 28.399,227.978 28.632,228.281C28.89,228.617 28.923,229.071 28.715,229.437C28.421,229.953 28.193,230.505 28.036,231.075C27.924,231.481 27.58,231.779 27.16,231.834C26.78,231.884 26.4,231.937 26.03,231.992C25.975,232 25.934,232.049 25.934,232.106L25.934,233.894C25.934,233.951 25.975,233.999 26.03,234.008C26.4,234.063 26.78,234.116 27.16,234.166C27.58,234.221 27.924,234.518 28.036,234.924C28.193,235.495 28.421,236.046 28.715,236.562C28.923,236.929 28.89,237.383 28.632,237.719C28.398,238.023 28.167,238.329 27.944,238.63C27.911,238.675 27.917,238.738 27.957,238.778L29.221,240.043C29.261,240.083 29.325,240.088 29.369,240.055C29.67,239.833 29.977,239.602 30.281,239.368C30.469,239.223 30.695,239.149 30.922,239.149C31.099,239.149 31.276,239.194 31.437,239.285C31.953,239.578 32.504,239.807 33.075,239.964C33.481,240.076 33.779,240.42 33.834,240.84C33.884,241.22 33.937,241.6 33.992,241.97C34,242.025 34.049,242.066 34.106,242.066L35.894,242.066C35.955,242.062 36,242.022 36.008,241.97C36.063,241.6 36.116,241.22 36.166,240.84C36.221,240.42 36.518,240.076 36.924,239.964C37.495,239.806 38.047,239.578 38.562,239.285C38.929,239.077 39.383,239.109 39.719,239.368C40.023,239.601 40.33,239.833 40.63,240.055C40.675,240.088 40.738,240.083 40.778,240.043L42.043,238.778C42.083,238.738 42.088,238.675 42.055,238.63C41.833,238.329 41.601,238.022 41.368,237.719C41.109,237.383 41.077,236.929 41.285,236.562C41.578,236.046 41.807,235.495 41.964,234.924C42.076,234.518 42.42,234.22 42.84,234.166C43.219,234.116 43.6,234.063 43.97,234.007C44.022,233.999 44.062,233.955 44.066,233.894ZM35,228.659C32.606,228.659 30.659,230.606 30.659,233C30.659,235.393 32.606,237.341 35,237.341C37.394,237.341 39.341,235.393 39.341,233C39.341,230.606 37.394,228.659 35,228.659ZM35,236.407C33.121,236.407 31.593,234.878 31.593,233C31.593,231.121 33.121,229.592 35,229.592C36.879,229.592 38.407,231.121 38.407,233C38.407,234.878 36.879,236.407 35,236.407Z" style="fill:white;"/>
    </g>
</svg>
