<?xml version="1.0" encoding="UTF-8" standalone="no"?>
<!DOCTYPE svg PUBLIC "-//W3C//DTD SVG 1.1//EN" "http://www.w3.org/Graphics/SVG/1.1/DTD/svg11.dtd">
<svg width="100%" height="100%" viewBox="0 0 24 24" version="1.1" xmlns="http://www.w3.org/2000/svg" xmlns:xlink="http://www.w3.org/1999/xlink" xml:space="preserve" xmlns:serif="http://www.serif.com/" style="fill-rule:evenodd;clip-rule:evenodd;stroke-linejoin:round;stroke-miterlimit:1.41421;">
    <g id="Shape-1" serif:id="Shape 1" transform="matrix(1,0,0,1,-23.4981,-346)">
        <path d="M44.89,353.175L41.002,348.197C40.905,348.072 40.761,347.999 40.604,347.999L30.396,347.999C30.239,347.999 30.095,348.072 29.997,348.197L26.11,353.175C26.038,353.265 26,353.376 26,353.492L26,367.486C26,367.768 26.229,368 26.509,368L44.487,368C44.767,368 44.996,367.768 44.996,367.486L44.996,353.492C45,353.376 44.962,353.265 44.89,353.175ZM43.508,353.064L36.009,353.064L36.009,349.027L40.358,349.027L43.508,353.064ZM30.642,349.027L34.991,349.027L34.991,353.064L27.492,353.064L30.642,349.027ZM27.017,366.972L27.017,354.091L43.978,354.091L43.978,366.972L27.017,366.972Z" style="fill:white;fill-rule:nonzero;"/>
    </g>
</svg>
