<?xml version="1.0" encoding="UTF-8" standalone="no"?>
<!DOCTYPE svg PUBLIC "-//W3C//DTD SVG 1.1//EN" "http://www.w3.org/Graphics/SVG/1.1/DTD/svg11.dtd">
<svg width="100%" height="100%" viewBox="0 0 18 18" version="1.1" xmlns="http://www.w3.org/2000/svg" xmlns:xlink="http://www.w3.org/1999/xlink" xml:space="preserve" xmlns:serif="http://www.serif.com/" style="fill-rule:evenodd;clip-rule:evenodd;stroke-linejoin:round;stroke-miterlimit:1.41421;">
    <g id="Forma-1-copy-2" serif:id="Forma 1 copy 2" transform="matrix(1.00013,0,0,0.996952,-429.557,-1745.66)">
        <path d="M444.856,1765.82L444.856,1762.41C444.856,1762.09 445.111,1761.83 445.427,1761.83C445.743,1761.83 445.998,1762.09 445.998,1762.41L445.998,1766.16C445.998,1766.21 445.983,1766.25 445.974,1766.29C445.984,1766.33 445.998,1766.37 445.998,1766.41C445.998,1766.74 445.743,1767 445.427,1767L431.572,1767C431.256,1767 431,1766.74 431,1766.41C431,1766.37 431.016,1766.33 431.025,1766.29C431.016,1766.25 431,1766.21 431,1766.16L431,1762.41C431,1762.09 431.256,1761.83 431.572,1761.83C431.888,1761.83 432.143,1762.09 432.143,1762.41L432.143,1765.82L444.856,1765.82ZM438.535,1764.24C438.851,1764.24 439.107,1763.98 439.107,1763.65L439.107,1755.06L441.595,1757.62C441.707,1757.74 441.853,1757.8 441.999,1757.8C442.145,1757.8 442.291,1757.74 442.403,1757.62C442.626,1757.39 442.626,1757.02 442.403,1756.79L438.939,1753.23C438.716,1753 438.355,1753 438.131,1753.23L434.668,1756.79C434.445,1757.02 434.445,1757.39 434.668,1757.62C434.779,1757.74 434.926,1757.8 435.072,1757.8C435.218,1757.8 435.364,1757.74 435.476,1757.62L437.964,1755.06L437.964,1763.65C437.964,1763.98 438.219,1764.24 438.535,1764.24Z" style="fill:white;"/>
    </g>
</svg>
