<?xml version="1.0" encoding="UTF-8" standalone="no"?>
<!DOCTYPE svg PUBLIC "-//W3C//DTD SVG 1.1//EN" "http://www.w3.org/Graphics/SVG/1.1/DTD/svg11.dtd">
<svg width="100%" height="100%" viewBox="0 0 24 24" version="1.1" xmlns="http://www.w3.org/2000/svg" xmlns:xlink="http://www.w3.org/1999/xlink" xml:space="preserve" xmlns:serif="http://www.serif.com/" style="fill-rule:evenodd;clip-rule:evenodd;stroke-linejoin:round;stroke-miterlimit:1.41421;">
    <g id="Forma-1" serif:id="Forma 1" transform="matrix(1,0,0,1,-22.9995,-159.015)">
        <path d="M43.599,175.392C43.008,174.802 42.019,174.287 40.459,173.508C39.673,173.116 38.364,172.462 38.047,172.163C39.375,170.533 40.146,168.692 40.146,167.08C40.146,165.986 40.146,164.625 39.533,163.411C38.981,162.318 37.745,161.015 35,161.015C32.254,161.015 31.019,162.318 30.467,163.411C29.853,164.625 29.853,165.986 29.853,167.08C29.853,168.692 30.623,170.533 31.953,172.163C31.635,172.463 30.326,173.116 29.54,173.508C27.981,174.287 26.992,174.802 26.4,175.392C25.09,176.701 24.991,178.896 24.984,179.323C24.978,179.769 25.15,180.2 25.464,180.518C25.777,180.836 26.207,181.015 26.653,181.015L43.346,181.015C43.794,181.015 44.222,180.836 44.535,180.518C44.849,180.2 45.022,179.769 45.015,179.323C45.009,178.896 44.909,176.701 43.599,175.392ZM43.644,179.641C43.564,179.721 43.459,179.765 43.346,179.765L26.653,179.765C26.542,179.765 26.434,179.72 26.356,179.641C26.279,179.562 26.235,179.454 26.236,179.342C26.24,179.133 26.297,177.264 27.285,176.277C27.741,175.821 28.696,175.328 30.1,174.626C31.599,173.878 32.43,173.433 32.812,173.072L33.657,172.274L32.924,171.374C31.768,169.957 31.105,168.391 31.105,167.08C31.105,166.068 31.105,164.923 31.584,163.974C32.158,162.84 33.306,162.265 35,162.265C36.692,162.265 37.842,162.84 38.415,163.974C38.895,164.923 38.895,166.068 38.895,167.08C38.895,168.391 38.232,169.957 37.075,171.374L36.341,172.275L37.187,173.072C37.569,173.432 38.4,173.878 39.899,174.626C41.303,175.327 42.258,175.821 42.714,176.277C43.518,177.079 43.752,178.581 43.763,179.343C43.765,179.454 43.721,179.562 43.644,179.641Z" style="fill:white;fill-rule:nonzero;"/>
    </g>
</svg>
