<?xml version="1.0" encoding="UTF-8" standalone="no"?>
<!DOCTYPE svg PUBLIC "-//W3C//DTD SVG 1.1//EN" "http://www.w3.org/Graphics/SVG/1.1/DTD/svg11.dtd">
<svg width="100%" height="100%" viewBox="0 0 24 24" version="1.1" xmlns="http://www.w3.org/2000/svg" xmlns:xlink="http://www.w3.org/1999/xlink" xml:space="preserve" xmlns:serif="http://www.serif.com/" style="fill-rule:evenodd;clip-rule:evenodd;stroke-linejoin:round;stroke-miterlimit:1.41421;">
    <g id="Forma-1" serif:id="Forma 1" transform="matrix(1,0,0,1,-1340,-85)">
        <path d="M1358.36,99.636C1357.38,98.656 1356.22,97.93 1354.94,97.491C1356.31,96.552 1357.2,94.98 1357.2,93.203C1357.2,90.334 1354.87,88 1352,88C1349.13,88 1346.8,90.334 1346.8,93.203C1346.8,94.98 1347.69,96.552 1349.06,97.491C1347.78,97.93 1346.62,98.656 1345.64,99.636C1343.94,101.336 1343,103.596 1343,106L1344.41,106C1344.41,101.813 1347.81,98.406 1352,98.406C1356.19,98.406 1359.59,101.813 1359.59,106L1361,106C1361,103.596 1360.06,101.336 1358.36,99.636ZM1352,97C1349.91,97 1348.2,95.297 1348.2,93.203C1348.2,91.109 1349.91,89.406 1352,89.406C1354.09,89.406 1355.8,91.109 1355.8,93.203C1355.8,95.297 1354.09,97 1352,97Z" style="fill:rgb(136,136,136);fill-rule:nonzero;"/>
    </g>
</svg>
